# xmcd CD database file
#
# Track frame offsets:
#	150
#	19365
#	34999
#	46879
#	62524
#	76115
#	87256
#	105944
#	117152
#	135045
#	142606
#	156883
#	168989
#	182954
#	195638
#	220831
#	238979
#	311952
#
# Disc length: 4194 seconds
#
# Revision: 1
# Processed by: cddbd v1.5.2PL0 Copyright (c) Steve Scherf et al.
# Submitted via: CDex 1.51
#
DISCID=e9106012
DTITLE=Rick and Bebe - In The Light of Truth
DYEAR=2002
DGENRE=Country
TTITLE0=Rescue The Captors
TTITLE1=I Saw The Light
TTITLE2=Chocolate Soldier
TTITLE3=Untwisted
TTITLE4=Power In The Blood
TTITLE5=Love Is Everthing
TTITLE6=Love! Do You Wonder?
TTITLE7=Love Is Everthing -English
TTITLE8=A Petition For Peace
TTITLE9=Praise Him
TTITLE10=One Day At A Time
TTITLE11=God Is Calling You
TTITLE12=Jesus Cries For Colombia
TTITLE13=Hope For Colombia
TTITLE14=How Great Thou Art
TTITLE15=My Reflection
TTITLE16=Message by Russell and Marina Stendal 1
TTITLE17=Message by Russell and Marina Stendal 2
EXTD=YEAR: 2002
EXTT0=
EXTT1=
EXTT2=
EXTT3=
EXTT4=
EXTT5=
EXTT6=
EXTT7=
EXTT8=
EXTT9=
EXTT10=
EXTT11=
EXTT12=
EXTT13=
EXTT14=
EXTT15=
EXTT16=
EXTT17=
PLAYORDER=
